<svg width="96" height="33" viewBox="0 0 96 33" fill="none" xmlns="http://www.w3.org/2000/svg">
<g id="logo 1" clip-path="url(#clip0_1_93)">
<g id="Group">
<g id="Group_2">
<path id="Vector" fill-rule="evenodd" clip-rule="evenodd" d="M28.2023 10.8581C27.8646 9.89689 27.2568 9.07304 26.7165 8.24918C26.3112 3.85529 22.5966 1.38373 18.5443 0.765839C15.8428 0.353912 12.3984 0.697185 10.1696 2.4822C6.99532 2.41355 1.92995 2.89413 0.579185 6.05224L0.0388794 7.35668L1.38964 7.21937C2.06503 7.15071 2.94302 7.28802 3.6184 7.49398C4.02363 7.63129 4.69902 7.7686 5.23932 8.04322C3.14564 10.3088 2.13256 13.6042 2.2001 18.0668C3.21318 2.41355 22.7317 4.67915 26.3112 12.9177C26.7165 13.055 27.1892 12.9863 27.5269 12.7117C28.2023 12.3685 28.4725 11.5446 28.2023 10.8581ZM17.1936 32.8275C12.5334 28.7769 6.11732 21.9114 9.83192 14.84C11.3178 11.8879 14.2219 9.89689 17.5313 9.89689C20.0302 9.89689 22.394 11.064 24.0149 12.9863C13.0738 -2.73554 -13.1986 20.813 17.1936 32.8275Z" fill="#EF542E"/>
</g>
</g>
<path id="Vector_2" d="M24.0151 18.2728C22.9345 17.3117 21.4487 16.8311 19.6251 16.8311C17.8016 16.8311 16.3158 17.3803 15.1676 18.4788C14.087 19.5773 13.5467 20.9504 13.5467 22.5981C13.5467 24.3144 14.0195 25.6875 15.0325 26.6487C16.0456 27.6785 17.5314 28.2277 19.4901 28.2277C20.7733 28.2277 21.9214 27.9531 22.9345 27.4725C24.0827 26.9233 24.8931 25.9621 25.501 23.9025H23.3397C22.6643 25.2756 21.3811 26.3054 19.4901 26.3054C17.1938 26.3054 15.9781 25.3442 15.7079 23.3533H25.7036V22.1861C25.7036 20.5384 25.0957 19.234 24.0151 18.2728ZM15.7079 21.1563C15.843 20.4698 16.1807 19.9892 16.721 19.5086C17.3964 18.8907 18.3419 18.6161 19.5576 18.6161C20.7733 18.6161 21.6513 18.8221 22.3267 19.44C22.867 19.9205 23.1371 20.4011 23.2722 21.0877H15.7079V21.1563Z" fill="#033048"/>
<path id="Vector_3" d="M35.3623 17.037L31.5801 25.001L27.5278 17.037H25.164L30.8372 28.0218H32.3906L37.6586 17.037H35.3623Z" fill="#033048"/>
<path id="Vector_4" d="M43.5336 16.8311C41.6426 16.8311 40.1567 17.3803 39.0086 18.4101C37.8604 19.44 37.3201 20.813 37.3201 22.5294C37.3201 24.1771 37.8604 25.5502 39.0086 26.6487C40.0892 27.6785 41.575 28.2277 43.4661 28.2277C45.3572 28.2277 46.843 27.6785 47.9912 26.6487C49.1393 25.6189 49.6796 24.2458 49.6796 22.5294C49.6796 20.8817 49.1393 19.5086 47.9912 18.4101C46.9106 17.3803 45.4247 16.8311 43.5336 16.8311ZM46.5053 25.2756C45.7624 25.9621 44.8169 26.3054 43.5336 26.3054C42.2504 26.3054 41.2373 25.9621 40.562 25.2756C39.819 24.589 39.4814 23.6965 39.4814 22.5294C39.4814 21.3623 39.819 20.4698 40.562 19.7832C41.2373 19.0967 42.2504 18.7534 43.5336 18.7534C44.8169 18.7534 45.8299 19.0967 46.5053 19.7832C47.1807 20.4698 47.5859 21.3623 47.5859 22.5294C47.5859 23.6279 47.2482 24.589 46.5053 25.2756Z" fill="#033048"/>
<path id="Vector_5" d="M52.7213 12.9178H50.6951V28.0218H52.7213V12.9178Z" fill="#033048"/>
<path id="Vector_6" d="M60.6893 16.8311C59.2034 16.8311 58.1228 17.243 56.7721 18.0669V17.037H54.7459V31.4545H56.7721V27.3352C58.1228 28.1591 59.2034 28.571 60.7568 28.571C62.6479 28.571 64.2013 28.0218 65.2819 26.8546C66.2949 25.8248 66.7677 24.3831 66.7677 22.6667C66.7677 20.9504 66.2274 19.5773 65.2143 18.4788C64.1337 17.3803 62.5803 16.8311 60.6893 16.8311ZM63.796 25.4816C63.1207 26.2368 62.1751 26.58 60.9594 26.58C58.3254 26.58 57.0422 25.2756 57.0422 22.5981C57.0422 21.4309 57.3799 20.5384 58.1228 19.7832C58.7982 19.0967 59.8113 18.6848 61.027 18.6848C62.2427 18.6848 63.1207 19.028 63.796 19.7832C64.4714 20.5384 64.7416 21.4309 64.7416 22.5981C64.7416 23.9025 64.4039 24.795 63.796 25.4816Z" fill="#033048"/>
<path id="Vector_7" d="M77.3714 17.449C76.4934 16.7624 75.2102 16.4878 73.7919 16.4878C72.4411 16.4878 70.9553 16.8311 70.2799 17.449V12.9178H68.2537V28.0218H70.2799V21.7055C70.2799 20.7444 70.6176 19.9205 71.2254 19.3026C71.8332 18.6847 72.8463 18.4101 73.9269 18.4101C75.818 18.4101 76.9662 19.1653 76.9662 20.7444V28.0218H78.9923V20.5384C79.0598 19.1653 78.3845 18.1355 77.3714 17.449Z" fill="#033048"/>
<path id="Vector_8" fill-rule="evenodd" clip-rule="evenodd" d="M80.7459 15.252C80.7459 14.84 80.7459 13.7416 80.7459 13.3296C80.7459 12.9864 81.2862 12.6431 81.8265 12.6431C82.3668 12.6431 82.9071 13.055 82.9071 13.3296C82.9071 13.3296 82.9071 14.9087 82.9071 15.252C82.9071 15.5952 82.4344 15.9385 81.8265 15.9385C81.1511 15.9385 80.7459 15.6639 80.7459 15.252Z" fill="#033048"/>
<path id="Vector_9" d="M82.8396 16.6936H80.7459V28.0216H82.8396V16.6936Z" fill="#033048"/>
<path id="Vector_10" fill-rule="evenodd" clip-rule="evenodd" d="M93.1765 27.9531V21.019C93.1765 19.5086 92.2309 18.7534 90.2723 18.7534C89.1917 18.7534 88.3137 19.028 87.7059 19.6459C87.098 20.2638 86.8279 21.019 86.8279 21.9802V28.0218H84.7342V17.037H86.8279V17.7922C87.7734 17.1744 88.9216 16.8311 90.2723 16.8311C91.6906 16.8311 92.8388 17.1744 93.7168 17.7922C94.7298 18.4788 95.2702 19.5086 95.2702 20.813V27.9531H93.1765Z" fill="#033048"/>
</g>
<defs>
<clipPath id="clip0_1_93">
<rect width="95.2289" height="32.2676" fill="white" transform="translate(0.0388794 0.559845)"/>
</clipPath>
</defs>
</svg>
